<svg width="62" height="56" viewBox="0 0 62 56" fill="none" xmlns="http://www.w3.org/2000/svg">
<path d="M11.792 29.16C11.792 29.8 11.904 31.448 12.048 31.944H13.264C13.632 31.192 13.936 29.56 13.936 28.648V23.208L14 22.264C14.016 22.024 13.936 21.88 13.76 21.8C13.184 21.528 11.936 21.272 11.168 21.24C10.992 21.24 10.928 21.288 10.88 21.368L10.656 22.008C11.152 22.232 11.616 22.584 11.792 22.92V29.16ZM7.952 28.632C7.92 28.536 7.84 28.504 7.712 28.52C6.896 28.728 5.376 28.888 4.432 28.904C4.224 28.904 4.144 28.824 4.144 28.632V25.272L4.176 24.424C4.176 24.184 4.064 24.04 3.856 23.976C3.344 23.848 2.144 23.752 1.472 23.752C1.312 23.752 1.216 23.816 1.2 23.912L1.056 24.472C1.424 24.632 1.792 24.872 1.984 25.096V28.6C1.984 29 2.016 29.368 2.048 29.448C2.304 30.264 2.72 30.568 3.712 30.568C3.904 30.568 4.192 30.536 4.448 30.504C5.504 30.376 7.072 29.864 7.952 29.4C8.048 29.336 8.096 29.24 8.08 29.16L7.952 28.632ZM11.888 33.784L10.128 32.664C10.256 32.456 10.384 32.232 10.48 32.008C10.528 31.896 10.576 31.752 10.576 31.528C10.576 31.368 10.464 31.224 10.272 31.128C10.16 31.064 9.984 30.984 9.792 30.92H10.176C10.528 30.296 10.8 29 10.8 27.944V24.008L10.848 23.144C10.864 22.92 10.8 22.776 10.624 22.696C10.096 22.44 8.944 22.184 8.224 22.152C8.032 22.152 7.968 22.2 7.936 22.28L7.696 22.904C8.176 23.112 8.592 23.432 8.768 23.752V25.56C8.208 25.592 7.408 25.608 6.992 25.608C6.608 25.608 6.16 25.592 5.824 25.56L5.664 25.832C5.632 25.912 5.632 25.976 5.696 26.072C5.952 26.408 6.304 26.728 6.704 27C6.992 26.92 7.424 26.84 7.696 26.824C7.904 26.792 8.368 26.776 8.768 26.792V28.408C8.768 29.048 8.832 30.088 8.96 30.664C8.56 30.568 8.16 30.488 7.84 30.456C7.68 30.44 7.6 30.472 7.552 30.552L7.28 31.08C7.632 31.256 7.952 31.56 8.064 31.832C7.312 33.336 5.824 34.76 3.792 36.04C3.696 36.104 3.696 36.184 3.76 36.264L4.096 36.68C4.144 36.728 4.224 36.728 4.352 36.68C6.416 36.056 8.176 34.968 9.344 33.704L12.832 36.264C13.008 36.392 13.232 36.536 13.424 36.552C13.792 36.616 14.272 36.312 14.368 35.928C14.416 35.736 14.352 35.512 14.16 35.224C13.936 34.888 13.424 34.328 13.056 33.992L11.888 33.784ZM27.4851 28.472C26.3491 28.568 19.1971 28.648 18.1251 28.632C17.4851 28.616 16.6051 28.552 15.9331 28.44L15.7731 28.744C15.7411 28.824 15.7571 28.936 15.8211 29C16.3011 29.448 17.0531 29.96 17.7251 30.2C18.1891 30.072 19.2291 29.896 19.6451 29.864C20.6211 29.8 26.9251 29.736 28.0131 29.736C28.5571 29.736 29.7411 29.768 30.1411 29.816C30.3811 29.72 30.6851 29.32 30.6851 28.888C30.6851 28.68 30.5731 28.552 30.3971 28.488C29.9811 28.328 28.9411 28.168 28.2371 28.136L27.4851 28.472ZM25.9331 35.192C24.9891 35.224 22.9251 35.24 21.8531 35.224C21.6451 35.224 21.5491 35.128 21.5491 34.904V34.2L27.2771 34.136C27.3891 34.008 27.5171 33.672 27.5171 33.336C27.5171 33.24 27.4531 33.16 27.3731 33.112L27.0691 32.968C27.1811 32.712 27.3571 32.152 27.3891 31.832L27.6771 31.192C27.7251 31.064 27.7091 30.952 27.6291 30.904C27.4051 30.792 26.8291 30.584 26.5571 30.488C26.4291 30.44 26.3171 30.44 26.2211 30.488L25.5811 30.76C24.7491 30.792 21.0691 30.824 20.2691 30.824C19.8531 30.824 19.0371 30.76 18.5251 30.664L18.3971 30.92C18.3491 31 18.3651 31.064 18.4451 31.144C18.8451 31.528 19.4051 31.96 19.9491 32.248C20.3971 32.136 21.0531 32.04 21.4531 32.008C21.9651 31.976 24.1731 31.96 25.2131 31.976C25.2291 32.152 25.2131 32.664 25.1971 32.904L24.8131 32.984C24.2371 33.016 22.4771 33.032 21.5811 33.032C20.9731 32.968 19.3571 32.936 18.6691 32.936C18.5571 32.936 18.4931 32.984 18.4771 33.048L18.3971 33.512C18.7811 33.656 19.1171 33.848 19.3251 34.088V35.16C19.3251 36.008 19.7571 36.456 20.8611 36.472L27.8691 36.424C27.9971 36.424 28.1091 36.408 28.1891 36.328C28.3011 36.216 28.4291 35.896 28.4291 35.464C28.4291 35.272 28.3011 35.144 28.1251 35.096C27.7571 35 26.9891 34.936 26.4611 34.936L25.9331 35.192ZM25.9331 22.312C25.0531 22.36 20.4451 22.44 19.6451 22.424C19.1971 22.424 18.4131 22.36 17.8211 22.264L17.6931 22.52C17.6611 22.584 17.6611 22.664 17.7091 22.728C18.0931 23.16 18.6851 23.656 19.2451 23.944C19.5811 23.848 20.2211 23.736 20.5731 23.72C21.2611 23.688 25.6291 23.624 26.3811 23.624C26.7971 23.624 27.8051 23.624 28.1251 23.656C28.3011 23.528 28.5571 23.096 28.5571 22.632C28.5571 22.488 28.4451 22.328 28.3011 22.28C27.9651 22.168 27.1331 22.056 26.5571 22.04L25.9331 22.312ZM17.9171 26.536C17.8851 26.6 17.8851 26.68 17.9331 26.744C18.3171 27.176 18.9091 27.672 19.4691 27.96C19.8051 27.864 20.4451 27.752 20.7971 27.736C21.5011 27.688 25.8531 27.592 26.5731 27.592C26.9731 27.592 27.8531 27.592 28.1411 27.624C28.3331 27.512 28.5731 27.08 28.5731 26.632C28.5731 26.472 28.4931 26.328 28.3491 26.28C28.0451 26.168 27.2771 26.056 26.7491 26.04L26.1571 26.28H26.0931L26.2531 25.08L26.3011 24.52C26.3171 24.312 26.2691 24.2 26.1251 24.152C25.6611 24.024 24.7331 23.912 24.1411 23.896C23.9331 23.896 23.8691 23.944 23.8371 24.024L23.6771 24.568C23.9171 24.632 24.1571 24.792 24.2691 24.952L24.2531 26.36L22.2691 26.408L22.2051 25.576L22.2371 24.984C22.2531 24.808 22.2211 24.696 22.0611 24.632C21.6291 24.44 20.7651 24.264 20.1731 24.216C19.9811 24.2 19.9171 24.248 19.8691 24.344L19.6771 24.872C19.9171 25 20.1571 25.208 20.2531 25.4L20.4131 26.44H19.8691C19.4211 26.44 18.6371 26.376 18.0451 26.28L17.9171 26.536ZM34.3783 26.6C34.3783 25.48 35.0182 24.776 35.9783 24.776C36.9383 24.776 37.5783 25.48 37.5783 26.6C37.5783 27.72 36.9383 28.408 35.9783 28.408C35.0182 28.408 34.3783 27.72 34.3783 26.6ZM42.1063 29.096C42.1063 29.928 42.2023 32.104 42.3623 32.696H43.6103C44.0583 31.672 44.3303 29.768 44.3303 28.472V23.288L44.3943 22.28C44.4103 22.04 44.3303 21.88 44.1543 21.8C43.5463 21.528 42.2343 21.272 41.4023 21.24C41.2263 21.24 41.1623 21.288 41.1303 21.368L40.9062 22.024C41.4343 22.248 41.9143 22.632 42.1063 23V24.28C41.6423 24.296 41.1783 24.296 40.9062 24.296C40.4743 24.296 39.9143 24.264 39.5463 24.2L39.3703 24.456C39.3383 24.536 39.3383 24.6 39.4183 24.696C39.7383 25.064 40.1383 25.432 40.6183 25.72C40.8903 25.64 41.3383 25.56 41.5943 25.528C41.7063 25.512 41.8983 25.496 42.1063 25.48V27.72C41.4983 27.752 40.7783 27.768 40.3943 27.768C40.1383 27.768 39.8343 27.752 39.5623 27.736C39.6743 27.384 39.7383 27 39.7383 26.6C39.7383 24.6 38.2023 23.208 35.9783 23.208C33.7703 23.208 32.2183 24.6 32.2183 26.6C32.2183 28.616 33.7703 30.04 35.9783 30.04C37.4183 30.04 38.5703 29.448 39.1943 28.488C39.4663 28.744 39.7703 28.984 40.1063 29.192C40.3783 29.112 40.8263 29.032 41.0823 29C41.2903 28.968 41.6903 28.952 42.1063 28.936V29.096ZM42.4903 34.952C41.5463 34.984 39.6903 35.016 38.7783 35C38.5063 35 38.3943 34.872 38.3943 34.6V33.096L38.4263 32.184C38.4263 31.944 38.3143 31.8 38.1063 31.752C37.5303 31.624 36.1863 31.528 35.4343 31.528C35.2743 31.528 35.1783 31.608 35.1623 31.688L35.0343 32.232C35.4503 32.392 35.8823 32.648 36.1383 32.888V34.76C36.1383 35.768 36.6503 36.296 37.9463 36.312L44.6823 36.248C44.8263 36.248 44.9543 36.216 45.0343 36.136C45.1623 36.008 45.3383 35.624 45.3383 35.096C45.3383 34.904 45.2103 34.76 45.0023 34.712C44.6023 34.616 43.7703 34.552 43.1943 34.568L42.4903 34.952ZM52.8394 24.12C52.1034 24.168 49.7514 24.2 49.1434 24.2C48.6634 24.2 47.9754 24.152 47.4474 24.072L47.3034 24.312C47.2554 24.392 47.2714 24.456 47.3514 24.552C47.7354 24.936 48.3114 25.352 48.8714 25.624C49.2394 25.496 49.8954 25.384 50.2634 25.368C50.5674 25.352 51.5114 25.336 52.2314 25.336C51.5274 27.768 49.6234 30.568 47.0474 32.632C46.9674 32.728 46.9834 32.808 47.0634 32.888L47.3994 33.208C47.4634 33.256 47.5594 33.256 47.6714 33.192C51.1914 31.4 53.9274 28.312 54.7754 25.304L55.0954 24.696C55.1594 24.584 55.1594 24.472 55.0634 24.408C54.8234 24.248 54.2154 23.928 53.9114 23.784C53.7994 23.736 53.6234 23.736 53.5114 23.784L52.8394 24.12ZM59.4474 27.88L58.7114 27.928V23.32L58.7914 22.28C58.8074 22.04 58.7274 21.88 58.5354 21.8C57.9114 21.528 56.5514 21.272 55.7034 21.24C55.5274 21.24 55.4794 21.288 55.4474 21.368L55.2234 22.008C55.7834 22.248 56.2794 22.632 56.4874 23.016V32.936C56.4874 33.704 56.5994 36.232 56.7434 36.776H57.9754C58.4394 35.608 58.7114 33.4 58.7114 32.28V29.288L61.0634 29.208C61.2554 29.208 61.5114 29.144 61.6234 29C61.7514 28.84 61.8474 28.424 61.8154 28.024C61.7994 27.816 61.6554 27.656 61.4314 27.608C61.1274 27.544 60.4394 27.512 59.9594 27.528L59.4474 27.88Z" fill="#111111"/>
</svg>
