<svg width="128" height="105" viewBox="0 0 128 105" fill="none" xmlns="http://www.w3.org/2000/svg">
<path d="M126.206 82.1691C127.092 83.0637 127.589 84.272 127.589 85.5312C127.589 86.7903 127.092 87.9986 126.206 88.8933L112.05 103.05C111.148 103.922 109.942 104.409 108.688 104.409C107.433 104.409 106.227 103.922 105.325 103.05C104.439 102.155 103.942 100.947 103.942 99.6874C103.942 98.4282 104.439 97.2199 105.325 96.3253L111.46 90.2499H87.5121C86.0128 90.2433 84.5363 89.8817 83.2035 89.1949C81.8707 88.508 80.7195 87.5153 79.8441 86.298L35.4879 24.1874H4.875C3.62351 24.1874 2.42328 23.6903 1.53834 22.8053C0.653402 21.9204 0.15625 20.7202 0.15625 19.4687C0.15625 18.2172 0.653402 17.0169 1.53834 16.132C2.42328 15.2471 3.62351 14.7499 4.875 14.7499H35.4879C36.9872 14.7565 38.4637 15.1181 39.7965 15.805C41.1293 16.4919 42.2805 17.4846 43.1559 18.7019L87.5121 80.8124H111.46L105.325 74.737C104.573 73.8202 104.188 72.6562 104.247 71.4716C104.305 70.2869 104.801 69.1663 105.64 68.3276C106.479 67.4889 107.6 66.9922 108.784 66.934C109.969 66.8758 111.133 67.2603 112.05 68.0128L126.206 82.1691ZM70.3477 40.1132C70.8541 40.4759 71.4274 40.7347 72.0344 40.8747C72.6414 41.0147 73.2701 41.0332 73.8842 40.929C74.4984 40.8248 75.0858 40.6 75.6127 40.2677C76.1396 39.9353 76.5954 39.5019 76.9539 38.9925L87.5121 24.1874H111.46L105.325 30.2628C104.439 31.1574 103.942 32.3657 103.942 33.6249C103.942 34.8841 104.439 36.0924 105.325 36.987C106.227 37.8591 107.433 38.3467 108.688 38.3467C109.942 38.3467 111.148 37.8591 112.05 36.987L126.206 22.8308C127.092 21.9361 127.589 20.7278 127.589 19.4687C127.589 18.2095 127.092 17.0012 126.206 16.1066L112.05 1.9503C111.133 1.19784 109.969 0.813296 108.784 0.871479C107.6 0.929661 106.479 1.42641 105.64 2.26509C104.801 3.10378 104.305 4.22444 104.247 5.40909C104.188 6.59374 104.573 7.75769 105.325 8.67452L111.46 14.7499H87.5121C86.0128 14.7565 84.5363 15.1181 83.2035 15.805C81.8707 16.4919 80.7195 17.4846 79.8441 18.7019L69.2859 33.5069C68.9203 34.0098 68.6576 34.58 68.513 35.1848C68.3684 35.7895 68.3448 36.4169 68.4435 37.0308C68.5421 37.6447 68.7611 38.233 69.0879 38.762C69.4147 39.291 69.8428 39.7502 70.3477 40.1132ZM52.6523 64.8866C52.1459 64.5239 51.5726 64.2651 50.9656 64.1251C50.3586 63.9851 49.7299 63.9667 49.1158 64.0708C48.5016 64.175 47.9142 64.3998 47.3873 64.7321C46.8604 65.0645 46.4046 65.4979 46.0461 66.0073L35.4879 80.8124H4.875C3.62351 80.8124 2.42328 81.3096 1.53834 82.1945C0.653402 83.0794 0.15625 84.2797 0.15625 85.5312C0.15625 86.7827 0.653402 87.9829 1.53834 88.8678C2.42328 89.7528 3.62351 90.2499 4.875 90.2499H35.4879C36.9872 90.2433 38.4637 89.8817 39.7965 89.1949C41.1293 88.508 42.2805 87.5153 43.1559 86.298L53.7141 71.4929C54.0797 70.99 54.3424 70.4198 54.487 69.815C54.6316 69.2103 54.6552 68.5829 54.5565 67.969C54.4579 67.3551 54.2389 66.7668 53.9121 66.2378C53.5853 65.7088 53.1572 65.2496 52.6523 64.8866Z" fill="#595959"/>
</svg>
